<?xml version="1.0" encoding="utf-8"?>
<!DOCTYPE svg PUBLIC "-//W3C//DTD SVG 1.1//EN" "http://www.w3.org/Graphics/SVG/1.1/DTD/svg11.dtd">
<svg version="1.1" xmlns="http://www.w3.org/2000/svg" xmlns:xlink="http://www.w3.org/1999/xlink" x="0px" y="0px"
	 viewBox="0 0 500 127.931" enable-background="new 0 0 500 127.931" xml:space="preserve">
<g>
	<path fill-rule="evenodd" clip-rule="evenodd" fill="#038652" d="M2.54,83.198l4.195,16.809c16.12,5.663,38.681,5.064,50.246-4.494
		c11.266-9.288,13.513-34.307,0.24-43.175c-16.12-10.726-38.172-6.951-40.718-20.494c-1.798-9.738,4.944-15.58,12.974-16.929
		c9.828-1.618,19.176,1.079,27.176,3.805l5.243-12.195c-10.786-5.903-31.34-11.116-50.186,0C-2.553,16.083-4.8,41.611,10.63,51.169
		C28.248,62.105,52.547,55.663,50,76.007C47.723,94.014,13.656,90.569,2.54,83.198L2.54,83.198z M187.346,88.591
		c-6.082-4.764-5.513-16.539,4.914-17.558l18.816-0.629C214.192,81.76,205.563,100.786,187.346,88.591L187.346,88.591z
		 M173.983,46.255c12.584-5.363,36.853-10.577,37.542,9.977c-22.322,2.217-44.284-1.618-43.415,25.288
		c0.36,10.187,6.202,17.797,13.723,20.764c17.258,4.404,29.303-1.169,30.232-4.075l2.007,4.135h12.135
		c2.427-12.105,1.528-54.531-3.446-62.8c-7.73-12.914-38.801-16.299-48.808-6.622L173.983,46.255z M88.741,75.768
		c-9.768-35.565,29.093-47.49,35.715-18.906C132.965,93.775,95.872,101.834,88.741,75.768L88.741,75.768z M99.018,28.428
		c-43.115,9.558-33.468,84.882,15.191,75.205C156.995,95.123,147.137,17.761,99.018,28.428L99.018,28.428z M341.531,19.049
		l5.483-13.902c-18.786-8.449-38.651-4.524-50.846,3.026c-11.505,7.131-17.408,24.928-17.318,44.733
		c0.12,20.614,7.191,34.217,18.906,42.636c16.599,11.955,30.202,8.419,49.887,3.925l-0.27-15.011
		c-13.063,3.026-22.442,9.318-36.733,0.929c-8.809-5.153-14.472-14.921-15.041-29.782C294.281,21.057,310.46,12.218,341.531,19.049
		L341.531,19.049z M444.061,127.931h13.932L500,27.559l-15.49-0.06l-21.213,51.415l-20.584-51.415l-14.382-0.09l26.307,71.549
		L444.061,127.931z M379.103,27.499l0.06,14.891l11.775-0.27l0.24,41.797c0.09,15.88,10.307,25.737,41.378,16.779l-5.992-12.254
		c-9.498,3.565-20.015,3.985-20.045-7.61l-0.15-38.711h20.045l-5.843-14.592l-14.412,0.03l-0.03-17.528l-14.382,0.06v17.468
		L379.103,27.499z M146.778,102.254l15.371,0.03l-0.15-86.231V2.091h-15.281L146.778,102.254z M272.199,41.491l2.187-13.932
		c-16.449-1.079-35.265,4.195-38.951,18.307c-2.936,11.086-1.169,42.516-1.438,56.419l15.101,0.03
		C250.057,44.727,242.716,44.188,272.199,41.491L272.199,41.491z M355.253,102.314l15.281,0.09l0.09-74.875l-15.46-0.03
		L355.253,102.314z M355.134,22.135l15.43,0.06l0.09-15.101l-15.46,0.21L355.134,22.135z"/>
</g>
</svg>
